<svg width="458" height="491" viewBox="0 0 458 491" fill="none" xmlns="http://www.w3.org/2000/svg">
<path d="M42.2363 269.257V229.66" stroke="white" stroke-width="2" stroke-linecap="round" stroke-linejoin="round"/>
<path d="M158.386 411.804L112.19 386.727" stroke="white" stroke-width="2" stroke-linecap="round" stroke-linejoin="round"/>
<path d="M329.971 394.646L295.654 414.444" stroke="white" stroke-width="2" stroke-linecap="round" stroke-linejoin="round"/>
<path d="M409.164 229.66V269.257" stroke="white" stroke-width="2" stroke-linecap="round" stroke-linejoin="round"/>
<path d="M295.654 72.5938L329.971 92.392" stroke="white" stroke-width="2" stroke-linecap="round" stroke-linejoin="round"/>
<path d="M100.312 105.591L158.386 72.5938" stroke="white" stroke-width="2" stroke-linecap="round" stroke-linejoin="round"/>
<path fill-rule="evenodd" clip-rule="evenodd" d="M270.456 452.193V395.966H186.223V452.193L176.864 480.306L183.884 489.678H272.796L279.815 480.306L270.456 452.193Z" fill="white"/>
<path fill-rule="evenodd" clip-rule="evenodd" d="M270.576 395.966V452.721H186.104L270.576 395.966Z" fill="#CCEFFF"/>
<path fill-rule="evenodd" clip-rule="evenodd" d="M176.864 480.438L183.884 489.678H272.796L279.815 480.438H176.864Z" fill="#CCEFFF"/>
<path fill-rule="evenodd" clip-rule="evenodd" d="M186.104 452.721H270.576V395.966H186.104V452.721Z" stroke="#4A587E" stroke-width="2" stroke-linecap="round" stroke-linejoin="round"/>
<path d="M270.456 452.721L279.815 480.438H176.864L186.223 452.721" stroke="#4A587E" stroke-width="2" stroke-linecap="round" stroke-linejoin="round"/>
<path fill-rule="evenodd" clip-rule="evenodd" d="M176.864 480.438L183.884 489.678H272.796L279.815 480.438H176.864Z" stroke="#4A587E" stroke-width="2" stroke-linecap="round" stroke-linejoin="round"/>
<path d="M215.141 479.118L219.761 469.879H238.239L242.859 479.118" stroke="#4A587E" stroke-width="2" stroke-linecap="round" stroke-linejoin="round"/>
<path fill-rule="evenodd" clip-rule="evenodd" d="M447.441 208.542H359.009L368.317 188.744H438.132L447.441 208.542Z" fill="white"/>
<path fill-rule="evenodd" clip-rule="evenodd" d="M456.68 165.297V98.9922H353.729V165.297H395.845V172.401L386.486 179.505H423.923L414.564 172.401V165.297H456.68Z" fill="white"/>
<path fill-rule="evenodd" clip-rule="evenodd" d="M456.68 98.9922L353.729 150.468H456.68V98.9922Z" fill="#CCEFFF"/>
<path fill-rule="evenodd" clip-rule="evenodd" d="M353.729 163.667H456.68V98.9922H353.729V163.667Z" stroke="#4A587E" stroke-width="2" stroke-linecap="round" stroke-linejoin="round"/>
<path d="M353.729 151.787H456.68" stroke="#4A587E" stroke-width="2" stroke-linecap="round" stroke-linejoin="round"/>
<path d="M414.444 164.986V171.586L423.683 178.185H386.726L395.965 171.586V164.986" stroke="#4A587E" stroke-width="2" stroke-linecap="round" stroke-linejoin="round"/>
<path fill-rule="evenodd" clip-rule="evenodd" d="M447.441 208.542H359.009L368.317 188.744H438.132L447.441 208.542Z" stroke="#4A587E" stroke-width="2" stroke-linecap="round" stroke-linejoin="round"/>
<path d="M372.208 199.303H376.167" stroke="#4A587E" stroke-width="2" stroke-linecap="round" stroke-linejoin="round"/>
<path d="M386.726 199.303H390.686" stroke="#4A587E" stroke-width="2" stroke-linecap="round" stroke-linejoin="round"/>
<path d="M399.925 199.303H403.884" stroke="#4A587E" stroke-width="2" stroke-linecap="round" stroke-linejoin="round"/>
<path d="M415.764 199.303H419.723" stroke="#4A587E" stroke-width="2" stroke-linecap="round" stroke-linejoin="round"/>
<path d="M428.962 199.303H432.922" stroke="#4A587E" stroke-width="2" stroke-linecap="round" stroke-linejoin="round"/>
<path fill-rule="evenodd" clip-rule="evenodd" d="M1.31982 395.966H85.7924V287.735H1.31982V395.966Z" fill="white"/>
<path fill-rule="evenodd" clip-rule="evenodd" d="M57.6349 329.624H67.0208V320.316H57.6349V329.624ZM38.8632 348.242H48.2491V338.933H38.8632V348.242ZM1.31982 376.168H85.7924V287.735L1.31982 376.168Z" fill="#CCEFFF"/>
<path fill-rule="evenodd" clip-rule="evenodd" d="M21.1182 311.493H30.3574V302.254H21.1182V311.493Z" stroke="#4A587E" stroke-width="2" stroke-linecap="round" stroke-linejoin="round"/>
<path fill-rule="evenodd" clip-rule="evenodd" d="M38.2764 311.493H47.5156V302.254H38.2764V311.493Z" stroke="#4A587E" stroke-width="2" stroke-linecap="round" stroke-linejoin="round"/>
<path fill-rule="evenodd" clip-rule="evenodd" d="M21.1182 329.972H30.3574V320.732H21.1182V329.972Z" stroke="#4A587E" stroke-width="2" stroke-linecap="round" stroke-linejoin="round"/>
<path fill-rule="evenodd" clip-rule="evenodd" d="M38.2764 329.972H47.5156V320.732H38.2764V329.972Z" stroke="#4A587E" stroke-width="2" stroke-linecap="round" stroke-linejoin="round"/>
<path fill-rule="evenodd" clip-rule="evenodd" d="M21.1182 348.45H30.3574V339.211H21.1182V348.45Z" stroke="#4A587E" stroke-width="2" stroke-linecap="round" stroke-linejoin="round"/>
<path fill-rule="evenodd" clip-rule="evenodd" d="M58.0752 311.493H67.3144V302.254H58.0752V311.493Z" stroke="#4A587E" stroke-width="2" stroke-linecap="round" stroke-linejoin="round"/>
<path fill-rule="evenodd" clip-rule="evenodd" d="M58.0747 329.972H67.3139V320.732H58.0747V329.972Z" stroke="#4A587E" stroke-width="2" stroke-linecap="round" stroke-linejoin="round"/>
<path fill-rule="evenodd" clip-rule="evenodd" d="M38.2764 348.45H47.5156V339.211H38.2764V348.45Z" stroke="#4A587E" stroke-width="2" stroke-linecap="round" stroke-linejoin="round"/>
<path fill-rule="evenodd" clip-rule="evenodd" d="M1.31982 395.966H85.7924V287.735H1.31982V395.966Z" stroke="#4A587E" stroke-width="2" stroke-linecap="round" stroke-linejoin="round"/>
<path d="M85.7924 377.487H1.31982" stroke="#4A587E" stroke-width="2" stroke-linecap="round" stroke-linejoin="round"/>
<path d="M38.2764 386.727H47.5156" stroke="#4A587E" stroke-width="2" stroke-linecap="round" stroke-linejoin="round"/>
<path fill-rule="evenodd" clip-rule="evenodd" d="M347.13 380.127H455.36V295.654H347.13V380.127Z" fill="white"/>
<path fill-rule="evenodd" clip-rule="evenodd" d="M403.598 369.568H441.243V360.329H403.598V369.568ZM439.898 323.372H441.243V332.611H424.439L408.977 341.85H441.243V351.09H403.598V345.084L394.187 350.706V369.568H362.593L347.13 378.807H455.36V314.133L439.898 323.372Z" fill="#CCEFFF"/>
<path d="M356.369 303.574H360.329" stroke="#4A587E" stroke-width="2" stroke-linecap="round"/>
<path d="M370.888 303.574H374.847" stroke="#4A587E" stroke-width="2" stroke-linecap="round"/>
<path d="M384.086 303.574H388.046" stroke="#4A587E" stroke-width="2" stroke-linecap="round"/>
<path fill-rule="evenodd" clip-rule="evenodd" d="M347.13 380.127H455.36V295.654H347.13V380.127Z" stroke="#4A587E" stroke-width="2" stroke-linecap="round" stroke-linejoin="round"/>
<path d="M347.13 314.133H455.36" stroke="#4A587E" stroke-width="2" stroke-linecap="round" stroke-linejoin="round"/>
<path fill-rule="evenodd" clip-rule="evenodd" d="M403.885 352.41H440.842V343.171H403.885V352.41Z" stroke="#4A587E" stroke-width="2" stroke-linecap="round" stroke-linejoin="round"/>
<path fill-rule="evenodd" clip-rule="evenodd" d="M403.885 332.611H440.842V323.372H403.885V332.611Z" stroke="#4A587E" stroke-width="2" stroke-linecap="round" stroke-linejoin="round"/>
<path fill-rule="evenodd" clip-rule="evenodd" d="M403.885 369.568H440.842V360.329H403.885V369.568Z" stroke="#4A587E" stroke-width="2" stroke-linecap="round" stroke-linejoin="round"/>
<path fill-rule="evenodd" clip-rule="evenodd" d="M356.369 370.888H393.326V323.372H356.369V370.888Z" stroke="#4A587E" stroke-width="2" stroke-linecap="round" stroke-linejoin="round"/>
<path fill-rule="evenodd" clip-rule="evenodd" d="M384.086 351.676L374.187 356.369L364.288 351.676V339.944L374.187 335.251L384.086 339.944V351.676Z" stroke="#4A587E" stroke-width="2" stroke-linecap="round" stroke-linejoin="round"/>
<path d="M356.369 369.568L363.299 360.329H386.397L393.326 369.568" stroke="#4A587E" stroke-width="2" stroke-linecap="round" stroke-linejoin="round"/>
<path fill-rule="evenodd" clip-rule="evenodd" d="M83.446 136.429H76.4066V117.711L64.6743 108.351L62.3278 98.9922H15.3986L13.0521 108.351L1.31982 117.711V183.225L13.0521 192.584L15.3986 201.943H62.3278L64.6743 192.584L76.4066 183.225V150.468H83.446L85.7924 143.448L83.446 136.429Z" fill="white"/>
<path fill-rule="evenodd" clip-rule="evenodd" d="M38.2764 167.626L62.0343 144.528L50.1553 130.669L38.2764 139.908V167.626Z" fill="#CCEFFF"/>
<path fill-rule="evenodd" clip-rule="evenodd" d="M55.9346 136.515L62.447 144.198L38.9365 167.296L30.1577 158.671L1.31982 183.464H76.5533V118.79L55.9346 136.515Z" fill="#CCEFFF"/>
<path fill-rule="evenodd" clip-rule="evenodd" d="M1.31982 183.464H76.5533V118.79H1.31982V183.464Z" stroke="#4A587E" stroke-width="2" stroke-linecap="round" stroke-linejoin="round"/>
<path d="M76.5533 118.79L64.798 108.891L62.447 98.9922H15.4261L13.075 108.891L1.31982 118.79" stroke="#4A587E" stroke-width="2" stroke-linecap="round" stroke-linejoin="round"/>
<path d="M76.5533 183.465L64.798 193.364L62.447 203.263H15.4261L13.075 193.364L1.31982 183.465" stroke="#4A587E" stroke-width="2" stroke-linecap="round" stroke-linejoin="round"/>
<path d="M76.5532 137.269H83.4826L85.7924 143.868L83.4826 150.467H76.5532" stroke="#4A587E" stroke-width="2" stroke-linecap="round" stroke-linejoin="round"/>
<path d="M13.1987 109.551H64.6742" stroke="#4A587E" stroke-width="2" stroke-linecap="round" stroke-linejoin="round"/>
<path d="M13.1987 192.703H64.6742" stroke="#4A587E" stroke-width="2" stroke-linecap="round" stroke-linejoin="round"/>
<path fill-rule="evenodd" clip-rule="evenodd" d="M38.2765 167.626L62.0344 144.528L50.1554 130.669L38.2765 139.908L26.3975 130.669L14.5186 144.528L38.2765 167.626Z" stroke="#1050FF" stroke-width="2" stroke-linejoin="round"/>
<path fill-rule="evenodd" clip-rule="evenodd" d="M38.2765 167.626L62.0344 144.528L50.1554 130.669L38.2765 139.908L26.3975 130.669L14.5186 144.528L38.2765 167.626Z" stroke="#1050FF" stroke-width="2" stroke-linecap="round" stroke-linejoin="round"/>
<path fill-rule="evenodd" clip-rule="evenodd" d="M38.2765 167.626L62.0344 144.528L50.1554 130.669L38.2765 139.908L26.3975 130.669L14.5186 144.528L38.2765 167.626Z" stroke="#4A587E" stroke-width="2" stroke-linejoin="round"/>
<path fill-rule="evenodd" clip-rule="evenodd" d="M191.812 56.7547L194.155 65.9939H219.926L231.64 47.5155L243.354 65.9939H269.124L278.496 29.0371H184.784L188.27 42.785" fill="white"/>
<path fill-rule="evenodd" clip-rule="evenodd" d="M268.149 65.9949L277.176 29.0381H261.059L236.259 54.4228L243.327 65.9949H268.149Z" fill="#CCEFFF"/>
<path fill-rule="evenodd" clip-rule="evenodd" d="M206.892 55.4352H179.174L176.864 42.2363H213.821L206.892 55.4352Z" fill="#CCEFFF"/>
<path d="M184.784 29.0379L211.346 1.32031H221.74" stroke="#9BC0D1" stroke-width="2" stroke-linecap="round" stroke-linejoin="round"/>
<path d="M277.176 29.0379L250.613 1.32031H240.219" stroke="#9BC0D1" stroke-width="2" stroke-linecap="round" stroke-linejoin="round"/>
<path fill-rule="evenodd" clip-rule="evenodd" d="M206.892 55.4352H179.174L176.864 42.2363H213.821L206.892 55.4352Z" stroke="#4A587E" stroke-width="2" stroke-linecap="round" stroke-linejoin="round"/>
<path d="M191.812 56.7547L194.155 65.9939H219.926L231.64 47.5155L243.354 65.9939H269.124L278.496 29.0371H184.784L188.27 42.785" stroke="#4A587E" stroke-width="2" stroke-linecap="round" stroke-linejoin="round"/>
</svg>
